<?xml version="1.0" encoding="UTF-8"?>
<svg id="Lager_1" data-name="Lager 1" xmlns="http://www.w3.org/2000/svg" viewBox="0 0 30.68 30.75">
  <defs>
    <style>
      .cls-1 {
        fill: #fff;
        stroke-width: 0px;
      }
    </style>
  </defs>
  <path class="cls-1" d="M17.04,20.3c-.19-.24-.69-1.05-.83-1.34-.15-.29-.37-.8-.46-1.11-.22-.75-.34-1.72-.32-2.49,0-.31.09-.83.14-1.15.63-3.83,4.13-5.77,6.25-10.25-1.13.01-2.3.24-3.44.74-2.02.88-3.02,2.43-3.22,2.39-1.81-2.19-4.69-3.33-7.51-3.12C3.82,4.25.48,7.56.05,11.35c-.36,3.16,1.13,6.15,3.03,8.59,2.49,3.2,8.71,8.36,12.17,10.8,2.39-1.89,5.68-4.43,8.56-7.18-2.66,0-5.13-1.12-6.77-3.27h0Z"/>
  <path class="cls-1" d="M25.19,1.88c.26.4.45.84.63,1.27.33.79.59,1.62.71,2.47.02.12.02.26.04.37.03.28.03.54.04.82.06,2.04-.32,3.85-1.3,5.65-.22.4-.61.75-.71.95-.29.53.43,1.3,1.16.45.91-1.05,1.69-3.63,1.91-5.02.11-.74-.05-1.39.3-1.25.71,1.61,1.39,4.63,1.31,6.36-.1,1.99-1.34,3.17-1.38,3.42-.07.44.29.79.73.69.47-.1,1.3-1.88,1.48-2.34.33-.88.29-1.55.49-1.05.02.05.07.28.07.36.02.19.01.73,0,.94-.01.15-.02.35-.04.49-.1.72-.48,1.66-.86,2.28-.1.16-.19.3-.3.45-.95,1.29-2.59,2.34-4.16,2.66-.34.07-.7.14-1.05.15-2.29.1-4.44-.82-5.84-2.66-.15-.2-.56-.86-.67-1.08-.12-.24-.3-.65-.37-.9-.18-.61-.28-1.39-.26-2.02,0-.26.07-.67.11-.94.58-3.49,4.1-5.04,5.65-9.77.07-.23.16-.44.23-.67.06-.23.11-.48.15-.71.03-.19.09-.37.11-.56.11-.9.06-1.8-.06-2.69.69.45,1.44,1.18,1.89,1.87h0Z"/>
</svg>