<?xml version="1.0" encoding="UTF-8"?>
<svg id="Lager_1" data-name="Lager 1" xmlns="http://www.w3.org/2000/svg" viewBox="0 0 141 31.3">
  <defs>
    <style>
      .cls-1 {
        fill: #669ec8;
      }

      .cls-1, .cls-2, .cls-3 {
        stroke-width: 0px;
      }

      .cls-2 {
        fill: #fff;
      }

      .cls-3 {
        fill: #005ea3;
      }
    </style>
  </defs>
  <path class="cls-3" d="M17.04,20.3c-.19-.24-.69-1.05-.83-1.34-.15-.29-.37-.8-.46-1.11-.22-.75-.34-1.72-.32-2.49,0-.31.09-.83.14-1.15.63-3.83,4.13-5.77,6.25-10.25-1.13.01-2.3.24-3.44.74-2.02.88-3.02,2.43-3.22,2.39-1.81-2.19-4.69-3.33-7.51-3.12C3.82,4.25.48,7.56.05,11.35c-.36,3.16,1.13,6.15,3.03,8.59,2.49,3.2,8.71,8.36,12.17,10.8,2.39-1.89,5.68-4.43,8.56-7.18-2.66,0-5.13-1.12-6.77-3.27h0Z"/>
  <path class="cls-1" d="M25.19,1.88c.26.4.45.84.63,1.27.33.79.59,1.62.71,2.47.02.12.02.26.04.37.03.28.03.54.04.82.06,2.04-.32,3.85-1.3,5.65-.22.4-.61.75-.71.95-.29.53.43,1.3,1.16.45.91-1.05,1.69-3.63,1.91-5.02.11-.74-.05-1.39.3-1.25.71,1.61,1.39,4.63,1.31,6.36-.1,1.99-1.34,3.17-1.38,3.42-.07.44.29.79.73.69.47-.1,1.3-1.88,1.48-2.34.33-.88.29-1.55.49-1.05.02.05.07.28.07.36.02.19.01.73,0,.94-.01.15-.02.35-.04.49-.1.72-.48,1.66-.86,2.28-.1.16-.19.3-.3.45-.95,1.29-2.59,2.34-4.16,2.66-.34.07-.7.14-1.05.15-2.29.1-4.44-.82-5.84-2.66-.15-.2-.56-.86-.67-1.08-.12-.24-.3-.65-.37-.9-.18-.61-.28-1.39-.26-2.02,0-.26.07-.67.11-.94.58-3.49,4.1-5.04,5.65-9.77.07-.23.16-.44.23-.67.06-.23.11-.48.15-.71.03-.19.09-.37.11-.56.11-.9.06-1.8-.06-2.69.69.45,1.44,1.18,1.89,1.87h0Z"/>
  <path class="cls-2" d="M53.29,12.93h-5.65c.03-.36-.03-.67-.19-.94-.16-.26-.38-.45-.67-.59-.28-.14-.61-.2-.96-.2-.62,0-1.19.14-1.69.41-.51.28-.79.64-.86,1.09-.04.18.02.34.17.49.15.15.55.29,1.2.42l3.46.64c1.73.32,2.99.9,3.79,1.73.79.84,1.08,1.94.86,3.32-.2,1.19-.73,2.22-1.57,3.07-.84.86-1.91,1.52-3.21,1.98-1.29.46-2.73.69-4.29.69-2.76,0-4.82-.55-6.19-1.65-1.37-1.1-2-2.54-1.88-4.31h6.11c.02.57.2,1,.57,1.28.37.28.86.44,1.47.45.67.02,1.25-.11,1.75-.4.5-.29.78-.66.84-1.1.02-.25-.09-.44-.32-.57-.24-.12-.69-.26-1.36-.39l-3-.54c-1.73-.31-2.99-.94-3.78-1.88-.79-.94-1.07-2.14-.82-3.59.2-1.16.67-2.14,1.42-2.93.75-.79,1.73-1.39,2.95-1.79,1.22-.41,2.64-.61,4.23-.61,2.62,0,4.6.53,5.95,1.58,1.35,1.05,1.9,2.5,1.66,4.35h.01Z"/>
  <path class="cls-2" d="M51.73,31.29l4.01-24.05h6.24l-.5,3.06h.14c.32-.6.74-1.14,1.26-1.63.52-.5,1.14-.9,1.84-1.2.71-.3,1.49-.45,2.36-.45,1.16,0,2.2.31,3.14.92.94.61,1.63,1.58,2.06,2.9.44,1.32.48,3.04.13,5.15-.33,2.02-.92,3.7-1.77,5.02-.85,1.33-1.85,2.32-3,2.97-1.16.65-2.35.98-3.6.98-.82,0-1.53-.14-2.13-.4-.6-.27-1.08-.64-1.45-1.11-.37-.46-.62-1-.76-1.59h-.14l-1.55,9.43h-6.29ZM60.43,15.98c-.14.85-.14,1.59-.02,2.21.12.62.36,1.1.72,1.43.36.34.82.5,1.4.5s1.09-.16,1.55-.49.84-.8,1.16-1.42c.32-.62.55-1.36.7-2.23.14-.87.15-1.61.03-2.23-.11-.62-.35-1.09-.7-1.42-.35-.33-.81-.49-1.39-.49s-1.1.16-1.57.49c-.47.33-.87.8-1.2,1.42s-.56,1.36-.7,2.23Z"/>
  <path class="cls-2" d="M77.62,25c-1.11,0-2.06-.19-2.85-.55-.79-.36-1.37-.93-1.73-1.68-.36-.75-.44-1.71-.24-2.86.16-.96.46-1.77.9-2.45s.99-1.23,1.64-1.66c.65-.43,1.39-.77,2.21-1s1.68-.38,2.59-.45c.99-.07,1.79-.17,2.4-.28.62-.11,1.07-.27,1.38-.46.31-.2.49-.46.55-.8v-.05c.07-.45-.05-.8-.36-1.05-.31-.24-.74-.36-1.28-.36-.59,0-1.11.13-1.53.39-.43.26-.73.66-.88,1.21h-5.79c.24-1.07.74-2.05,1.5-2.94.75-.9,1.76-1.62,3.02-2.17,1.26-.54,2.76-.82,4.51-.82,1.25,0,2.34.15,3.28.44.94.29,1.72.7,2.34,1.22.62.52,1.05,1.13,1.31,1.83.26.69.31,1.45.18,2.26l-2.01,11.98h-5.88l.41-2.46h-.14c-.45.65-.96,1.18-1.53,1.58-.57.4-1.18.69-1.84.88-.66.19-1.38.27-2.14.27h0ZM80.35,21.04c.47,0,.94-.1,1.39-.29.45-.2.84-.48,1.17-.86.33-.37.53-.82.63-1.35l.23-1.46c-.17.07-.35.13-.55.19-.2.06-.41.11-.63.16-.22.05-.44.1-.68.15-.24.05-.48.09-.74.14-.5.07-.92.2-1.26.37-.34.17-.61.38-.8.63-.19.25-.31.52-.35.83-.07.48.05.85.33,1.11.29.26.71.39,1.26.39Z"/>
  <path class="cls-2" d="M90.48,24.73l2.91-17.49h6.11l-.54,3.33h.18c.52-1.23,1.18-2.13,1.97-2.7.79-.57,1.65-.86,2.58-.86.27,0,.54.02.79.06s.5.1.76.16l-.91,5.37c-.29-.11-.66-.19-1.11-.24-.44-.05-.83-.07-1.17-.07-.61,0-1.17.14-1.7.41-.53.28-.97.66-1.34,1.16-.37.5-.61,1.08-.74,1.75l-1.5,9.11h-6.29Z"/>
  <path class="cls-2" d="M117.25,14.9l4.48,9.84h-7.2l-2.55-6.16-1.14,1.2-.82,4.96h-6.29l3.88-23.33h6.28l-1.94,11.71h.22l5.24-5.87h7.06l-7.21,7.66Z"/>
  <path class="cls-2" d="M123.01,24.73l.54-3.46,9.15-9.16.05-.09h-7.38l.82-4.78h14.81l-.6,3.83-8.43,8.79-.05.09h7.25l-.78,4.78h-15.4,0Z"/>
</svg>